<svg width="20" height="20" viewBox="0 0 20 20" fill="none" xmlns="http://www.w3.org/2000/svg">
<path d="M6.28015 5.21997C6.13798 5.08749 5.94993 5.01537 5.75563 5.01879C5.56133 5.02222 5.37594 5.10093 5.23853 5.23835C5.10112 5.37576 5.02241 5.56114 5.01898 5.75545C5.01555 5.94975 5.08767 6.13779 5.22015 6.27997L8.94015 9.99997L5.22015 13.72C5.14647 13.7886 5.08736 13.8714 5.04637 13.9634C5.00538 14.0554 4.98334 14.1547 4.98156 14.2554C4.97979 14.3561 4.99831 14.4562 5.03603 14.5496C5.07375 14.643 5.1299 14.7278 5.20112 14.799C5.27233 14.8702 5.35717 14.9264 5.45056 14.9641C5.54394 15.0018 5.64397 15.0203 5.74468 15.0186C5.84538 15.0168 5.94469 14.9947 6.03669 14.9537C6.12869 14.9128 6.21149 14.8537 6.28015 14.78L10.0002 11.06L13.7202 14.78C13.7888 14.8537 13.8716 14.9128 13.9636 14.9537C14.0556 14.9947 14.1549 15.0168 14.2556 15.0186C14.3563 15.0203 14.4564 15.0018 14.5498 14.9641C14.6431 14.9264 14.728 14.8702 14.7992 14.799C14.8704 14.7278 14.9266 14.643 14.9643 14.5496C15.002 14.4562 15.0205 14.3561 15.0187 14.2554C15.017 14.1547 14.9949 14.0554 14.9539 13.9634C14.9129 13.8714 14.8538 13.7886 14.7802 13.72L11.0602 9.99997L14.7802 6.27997C14.9126 6.13779 14.9848 5.94975 14.9813 5.75545C14.9779 5.56114 14.8992 5.37576 14.7618 5.23835C14.6244 5.10093 14.439 5.02222 14.2447 5.01879C14.0504 5.01537 13.8623 5.08749 13.7202 5.21997L10.0002 8.93997L6.28015 5.21997Z" fill="#687076"/>
</svg>
