<svg xmlns="http://www.w3.org/2000/svg" width="40" height="40" viewBox="0 0 40 40" fill="none">
  <path fill-rule="evenodd" clip-rule="evenodd" d="M2.5 16.3872V19.375C2.5 21.1009 3.89911 22.5 5.625 22.5H34.375C36.1009 22.5 37.5 21.1009 37.5 19.375V16.3872C37.5 15.1937 37.073 14.0395 36.2963 13.1333L30.8215 6.74604C29.8716 5.63781 28.4849 5 27.0252 5H12.9748C11.5151 5 10.1284 5.63781 9.17847 6.74604L3.70372 13.1333C2.92696 14.0395 2.5 15.1937 2.5 16.3872ZM12.9748 7.5C12.2449 7.5 11.5516 7.81891 11.0766 8.37302L6.46778 13.75H11.7431C13.4148 13.75 14.976 14.5855 15.9033 15.9765L16.1768 16.3868C16.6405 17.0822 17.4211 17.5 18.2569 17.5H21.7431C22.5789 17.5 23.3595 17.0822 23.8232 16.3868L24.0967 15.9765C25.024 14.5855 26.5852 13.75 28.2569 13.75H33.5322L28.9234 8.37302C28.4484 7.81891 27.7551 7.5 27.0252 7.5H12.9748Z" fill="#646464"/>
  <path d="M4.6875 25C3.47938 25 2.5 25.9794 2.5 27.1875V30C2.5 32.7614 4.73858 35 7.5 35H32.5C35.2614 35 37.5 32.7614 37.5 30V27.1875C37.5 25.9794 36.5206 25 35.3125 25H28.2569C26.5852 25 25.024 25.8355 24.0967 27.2265L23.8232 27.6368C23.3595 28.3322 22.5789 28.75 21.7431 28.75H18.2569C17.4211 28.75 16.6405 28.3322 16.1768 27.6367L15.9033 27.2265C14.976 25.8355 13.4148 25 11.7431 25H4.6875Z" fill="#646464"/>
</svg>