<svg width="12" height="13" viewBox="0 0 12 13" fill="none" xmlns="http://www.w3.org/2000/svg">
<path d="M0.25 6.00098C0.25 2.8256 2.82417 0.25 5.99938 0.25C9.17458 0.25 11.7488 2.8256 11.7488 6.00098C11.7488 9.17636 9.17458 11.752 5.99938 11.752C2.82417 11.752 0.25 9.17636 0.25 6.00098Z" fill="#30A46C"/>
<path fill-rule="evenodd" clip-rule="evenodd" d="M5.08372 2.14743C5.39874 1.83245 5.93732 2.0556 5.93726 2.50108L5.9369 4.92486C5.9369 5.484 5.48347 5.93728 4.92415 5.93728L2.50093 5.93692C2.0555 5.93685 1.83248 5.39829 2.14747 5.08334L5.08372 2.14743ZM6.06105 7.07644C6.06105 6.51684 6.51423 6.06319 7.07324 6.06319L9.49768 6.06283C9.94309 6.06276 10.1663 6.60122 9.85141 6.91627L6.91508 9.85441C6.60016 10.1695 6.06148 9.94653 6.06141 9.50104L6.06105 7.07644Z" fill="#3C4347"/>
<path d="M0.25 6.00098C0.25 2.8256 2.82417 0.25 5.99938 0.25C9.17458 0.25 11.7488 2.8256 11.7488 6.00098C11.7488 9.17636 9.17458 11.752 5.99938 11.752C2.82417 11.752 0.25 9.17636 0.25 6.00098Z" stroke="#7E868C" stroke-width="0.5"/>
</svg>
