<svg width="12" height="12" viewBox="0 0 12 12" fill="none" xmlns="http://www.w3.org/2000/svg">
<path d="M0.25 6.00001C0.25 2.82437 2.82436 0.25 6 0.25C9.17564 0.25 11.75 2.82437 11.75 6.00001C11.75 9.17564 9.17564 11.75 6 11.75C2.82436 11.75 0.25 9.17564 0.25 6.00001Z" fill="#30A46C"/>
<path fill-rule="evenodd" clip-rule="evenodd" d="M9 4.96612C9.00007 4.52061 8.4614 4.29747 8.14641 4.61253L4.61366 8.14605C4.29876 8.46102 4.52179 8.9995 4.96718 8.99957L7.85678 9C8.48793 9 8.99957 8.48836 8.99957 7.85721L9 4.96612ZM4.14281 3.00043C3.51167 3.00043 3.00003 3.51207 3.00003 4.14322L3.00046 7.03301C3.00052 7.47837 3.53894 7.70142 3.85393 7.38656L7.38841 3.85363C7.70352 3.53865 7.4804 2.99993 7.03486 3L4.14281 3.00043Z" fill="#3C4347"/>
<path d="M0.25 6.00001C0.25 2.82437 2.82436 0.25 6 0.25C9.17564 0.25 11.75 2.82437 11.75 6.00001C11.75 9.17564 9.17564 11.75 6 11.75C2.82436 11.75 0.25 9.17564 0.25 6.00001Z" stroke="#7E868C" stroke-width="0.5"/>
</svg>
