<svg width="20" height="20" viewBox="0 0 20 20" fill="none" xmlns="http://www.w3.org/2000/svg">
<g id="users">
<path id="Vector" d="M7.1206 8.07982C7.88443 8.07982 8.61697 7.7764 9.15707 7.23629C9.69718 6.69619 10.0006 5.96365 10.0006 5.19982C10.0006 4.436 9.69718 3.70346 9.15707 3.16336C8.61697 2.62325 7.88443 2.31982 7.1206 2.31982C6.35678 2.31982 5.62424 2.62325 5.08413 3.16336C4.54403 3.70346 4.2406 4.436 4.2406 5.19982C4.2406 5.96365 4.54403 6.69619 5.08413 7.23629C5.62424 7.7764 6.35678 8.07982 7.1206 8.07982ZM14.3206 9.03982C14.9571 9.03982 15.5676 8.78697 16.0177 8.33688C16.4677 7.88679 16.7206 7.27634 16.7206 6.63982C16.7206 6.0033 16.4677 5.39286 16.0177 4.94277C15.5676 4.49268 14.9571 4.23982 14.3206 4.23982C13.6841 4.23982 13.0736 4.49268 12.6235 4.94277C12.1735 5.39286 11.9206 6.0033 11.9206 6.63982C11.9206 7.27634 12.1735 7.88679 12.6235 8.33688C13.0736 8.78697 13.6841 9.03982 14.3206 9.03982ZM1.951 16.1707C1.76278 16.0534 1.6116 15.8852 1.51494 15.6856C1.41828 15.486 1.38008 15.2631 1.40476 15.0427C1.58174 13.6517 2.25988 12.373 3.3121 11.4462C4.36432 10.5194 5.7184 10.008 7.1206 10.008C8.5228 10.008 9.87688 10.5194 10.9291 11.4462C11.9813 12.373 12.6595 13.6517 12.8364 15.0427C12.8921 15.491 12.6713 15.9259 12.2892 16.1697C10.7468 17.1582 8.95262 17.6824 7.1206 17.6798C5.28835 17.6829 3.49386 17.159 1.951 16.1707ZM14.3206 15.7598H14.2188C14.286 15.4747 14.3033 15.1733 14.2649 14.8641C14.1008 13.5444 13.573 12.2963 12.7404 11.2593C13.2762 11.0485 13.8488 10.9469 14.4244 10.9604C15 10.9739 15.5671 11.1023 16.0925 11.338C16.6178 11.5738 17.0907 11.9121 17.4834 12.3331C17.8762 12.7542 18.1808 13.2495 18.3795 13.7899C18.4405 13.9624 18.4394 14.1508 18.3763 14.3226C18.3132 14.4944 18.1921 14.6387 18.0339 14.7307C16.9133 15.4063 15.6291 15.7622 14.3206 15.7598Z" fill="#687076"/>
</g>
</svg>
