<svg width="33" height="33" viewBox="0 0 33 33" fill="none" xmlns="http://www.w3.org/2000/svg">
<g id="key">
<path id="Vector" d="M21.5232 7.04688C23.7323 7.04688 25.5232 8.83774 25.5232 11.0469M29.5232 11.0469C29.5232 15.4652 25.9415 19.0469 21.5232 19.0469C21.0555 19.0469 20.5972 19.0067 20.1516 18.9297C19.4009 18.8 18.6059 18.9642 18.0672 19.5029L14.5232 23.0469H11.5232V26.0469H8.52319V29.0469H3.52319V25.2895C3.52319 24.4939 3.83926 23.7308 4.40187 23.1682L13.0672 14.5029C13.6059 13.9642 13.77 13.1692 13.6403 12.4185C13.5633 11.9728 13.5232 11.5145 13.5232 11.0469C13.5232 6.6286 17.1049 3.04688 21.5232 3.04688C25.9415 3.04688 29.5232 6.6286 29.5232 11.0469Z" stroke="#646464" stroke-width="2" stroke-linecap="round" stroke-linejoin="round"/>
</g>
</svg>
