<svg width="16" height="16" viewBox="0 0 16 16" fill="none" xmlns="http://www.w3.org/2000/svg">
<path fill-rule="evenodd" clip-rule="evenodd" d="M3.33333 2.5C2.8731 2.5 2.5 2.8731 2.5 3.33333V12.6667C2.5 13.1269 2.8731 13.5 3.33333 13.5H5.5V2.5H3.33333ZM6.5 2.5V13.5H12.6667C13.1269 13.5 13.5 13.1269 13.5 12.6667V3.33333C13.5 2.8731 13.1269 2.5 12.6667 2.5H6.5ZM3.33333 14.5H6H12.6667C13.6792 14.5 14.5 13.6792 14.5 12.6667V3.33333C14.5 2.32081 13.6792 1.5 12.6667 1.5H6H3.33333C2.32081 1.5 1.5 2.32081 1.5 3.33333V12.6667C1.5 13.6792 2.32081 14.5 3.33333 14.5ZM9.68689 5.64645C9.49163 5.45118 9.17505 5.45118 8.97978 5.64645C8.78452 5.84171 8.78452 6.15829 8.97978 6.35355L10.6262 8L8.97978 9.64645C8.78452 9.84171 8.78452 10.1583 8.97978 10.3536C9.17505 10.5488 9.49163 10.5488 9.68689 10.3536L11.6869 8.35355C11.8822 8.15829 11.8822 7.84171 11.6869 7.64645L9.68689 5.64645Z" fill="#687076"/>
</svg>
