<svg width="16" height="16" viewBox="0 0 16 16" fill="none" xmlns="http://www.w3.org/2000/svg">
<g id="bell-slash">
<g id="Union">
<path d="M2.35355 1.64645C2.15829 1.45118 1.84171 1.45118 1.64645 1.64645C1.45118 1.84171 1.45118 2.15829 1.64645 2.35355L13.6464 14.3536C13.8417 14.5488 14.1583 14.5488 14.3536 14.3536C14.5488 14.1583 14.5488 13.8417 14.3536 13.6464L2.35355 1.64645Z" fill="#646464"/>
<path d="M13.7139 10.9836C13.5649 11.0387 13.4148 11.0916 13.2637 11.1424L4.87926 2.75794C5.68831 1.97898 6.78822 1.5 8.00001 1.5C10.4853 1.5 12.5 3.51472 12.5 6L12.4999 6.03279V6.5C12.4999 7.91542 13.0339 9.20494 13.9122 10.1799C14.0232 10.3031 14.0659 10.4734 14.0262 10.6344C13.9865 10.7954 13.8695 10.9262 13.7139 10.9836Z" fill="#646464"/>
<path fill-rule="evenodd" clip-rule="evenodd" d="M3.50001 5.99987C3.50001 5.87732 3.50491 5.75592 3.51453 5.63585L10.4373 12.5587C10.1836 13.6704 9.18867 14.5 8.00001 14.5C6.6193 14.5 5.50001 13.3807 5.50001 12C5.50001 11.9371 5.50234 11.8747 5.50693 11.8128C4.39289 11.644 3.31525 11.3637 2.28583 10.9836C2.13026 10.9262 2.01328 10.7954 1.97355 10.6344C1.93382 10.4734 1.97651 10.3031 2.08751 10.1799C2.96586 9.20494 3.49988 7.91542 3.49988 6.5L3.50001 5.99987ZM6.50148 11.9328C6.5005 11.9551 6.50001 11.9775 6.50001 12C6.50001 12.8284 7.17158 13.5 8.00001 13.5C8.82843 13.5 9.50001 12.8284 9.50001 12C9.50001 11.9775 9.49951 11.9551 9.49854 11.9328C9.00482 11.9773 8.50494 12 7.99988 12C7.4949 12 6.99511 11.9773 6.50148 11.9328Z" fill="#646464"/>
</g>
</g>
</svg>
