<svg width="16" height="16" viewBox="0 0 16 16" fill="none" xmlns="http://www.w3.org/2000/svg">
<g id="bell">
<path id="Vector" d="M9.90457 11.3878C11.1676 11.238 12.3855 10.941 13.5408 10.5146C12.5829 9.45134 11.9999 8.04376 11.9999 6.5V6.03279C12 6.02187 12 6.01094 12 6C12 3.79086 10.2091 2 8 2C5.79086 2 4 3.79086 4 6L3.99987 6.5C3.99987 8.04376 3.41685 9.45134 2.45898 10.5146C3.61427 10.9411 4.83229 11.238 6.09542 11.3878M9.90457 11.3878C9.27999 11.4619 8.64438 11.5 7.99987 11.5C7.35545 11.5 6.71992 11.4619 6.09542 11.3878M9.90457 11.3878C9.96654 11.5807 10 11.7865 10 12C10 13.1046 9.10457 14 8 14C6.89543 14 6 13.1046 6 12C6 11.7865 6.03346 11.5808 6.09542 11.3878" stroke="#646464" stroke-linecap="round" stroke-linejoin="round"/>
</g>
</svg>
