<svg width="16" height="16" viewBox="0 0 16 16" fill="none" xmlns="http://www.w3.org/2000/svg">
<path fill-rule="evenodd" clip-rule="evenodd" d="M3.33333 2.5C2.8731 2.5 2.5 2.8731 2.5 3.33333V12.6667C2.5 13.1269 2.8731 13.5 3.33333 13.5H5.5V2.5H3.33333ZM6.5 2.5V13.5H12.6667C13.1269 13.5 13.5 13.1269 13.5 12.6667V3.33333C13.5 2.8731 13.1269 2.5 12.6667 2.5H6.5ZM3.33333 14.5H6H12.6667C13.6792 14.5 14.5 13.6792 14.5 12.6667V3.33333C14.5 2.32081 13.6792 1.5 12.6667 1.5H6H3.33333C2.32081 1.5 1.5 2.32081 1.5 3.33333V12.6667C1.5 13.6792 2.32081 14.5 3.33333 14.5ZM11.0202 6.35355C11.2155 6.15829 11.2155 5.84171 11.0202 5.64645C10.825 5.45118 10.5084 5.45118 10.3131 5.64645L8.31311 7.64645C8.11785 7.84171 8.11785 8.15829 8.31311 8.35355L10.3131 10.3536C10.5084 10.5488 10.825 10.5488 11.0202 10.3536C11.2155 10.1583 11.2155 9.84171 11.0202 9.64645L9.37377 8L11.0202 6.35355Z" fill="#687076"/>
</svg>
