<svg width="12" height="12" viewBox="0 0 12 12" fill="none" xmlns="http://www.w3.org/2000/svg">
<path d="M6 11.75C2.82436 11.75 0.25 9.17564 0.25 6C0.25 2.82436 2.82436 0.25 6 0.25C9.17564 0.25 11.75 2.82436 11.75 6C11.75 9.17564 9.17564 11.75 6 11.75Z" fill="#E5484D"/>
<path fill-rule="evenodd" clip-rule="evenodd" d="M8.47325 4.33992C8.6978 4.11537 8.6978 3.7513 8.47325 3.52675C8.2487 3.3022 7.88463 3.3022 7.66008 3.52675L6 5.18683L4.33992 3.52675C4.11536 3.3022 3.75129 3.3022 3.52674 3.52675C3.30219 3.7513 3.30219 4.11537 3.52674 4.33992L5.18682 6L3.52674 7.66008C3.30219 7.88463 3.30219 8.2487 3.52674 8.47325C3.75129 8.6978 4.11536 8.6978 4.33992 8.47325L6 6.81317L7.66008 8.47325C7.88463 8.6978 8.2487 8.6978 8.47325 8.47325C8.6978 8.2487 8.6978 7.88463 8.47325 7.66008L6.81317 6L8.47325 4.33992Z" fill="#3C4347"/>
<path d="M6 11.75C2.82436 11.75 0.25 9.17564 0.25 6C0.25 2.82436 2.82436 0.25 6 0.25C9.17564 0.25 11.75 2.82436 11.75 6C11.75 9.17564 9.17564 11.75 6 11.75Z" stroke="#7E868C" stroke-width="0.5"/>
</svg>
