<svg xmlns="http://www.w3.org/2000/svg" width="16" height="16" viewBox="0 0 16 16" fill="none">
  <path d="M14.6665 7H10.6665M9.1665 4.25C9.1665 4.54547 9.10831 4.83806 8.99523 5.11104C8.88216 5.38402 8.71643 5.63206 8.50749 5.84099C8.29856 6.04992 8.05052 6.21566 7.77754 6.32873C7.50456 6.4418 7.21198 6.5 6.9165 6.5C6.62103 6.5 6.32845 6.4418 6.05547 6.32873C5.78248 6.21566 5.53445 6.04992 5.32551 5.84099C5.11658 5.63206 4.95085 5.38402 4.83777 5.11104C4.7247 4.83806 4.6665 4.54547 4.6665 4.25C4.6665 3.65326 4.90356 3.08097 5.32551 2.65901C5.74747 2.23705 6.31977 2 6.9165 2C7.51324 2 8.08554 2.23705 8.50749 2.65901C8.92945 3.08097 9.1665 3.65326 9.1665 4.25ZM2.6665 12.8233V12.75C2.6665 11.6228 3.11427 10.5418 3.9113 9.7448C4.70833 8.94777 5.78933 8.5 6.9165 8.5C8.04367 8.5 9.12468 8.94777 9.92171 9.7448C10.7187 10.5418 11.1665 11.6228 11.1665 12.75V12.8227C9.88349 13.5954 8.41358 14.0025 6.91584 14C5.36184 14 3.90784 13.57 2.6665 12.8227V12.8233Z" stroke="#E5484D" stroke-width="1.5" stroke-linecap="round" stroke-linejoin="round"/>
</svg>