<svg width="16" height="16" viewBox="0 0 16 16" fill="none" xmlns="http://www.w3.org/2000/svg">
<path fill-rule="evenodd" clip-rule="evenodd" d="M3.4001 1.59961C2.92271 1.59961 2.46487 1.78925 2.12731 2.12682C1.78974 2.46438 1.6001 2.92222 1.6001 3.39961V5.39961C1.6001 5.877 1.78974 6.33484 2.12731 6.6724C2.46487 7.00997 2.92271 7.19961 3.4001 7.19961H5.4001C5.87749 7.19961 6.33532 7.00997 6.67289 6.6724C7.01045 6.33484 7.2001 5.877 7.2001 5.39961V3.39961C7.2001 2.92222 7.01045 2.46438 6.67289 2.12682C6.33532 1.78925 5.87749 1.59961 5.4001 1.59961H3.4001ZM3.4001 8.79961C2.92271 8.79961 2.46487 8.98925 2.12731 9.32682C1.78974 9.66438 1.6001 10.1222 1.6001 10.5996V12.5996C1.6001 13.077 1.78974 13.5348 2.12731 13.8724C2.46487 14.21 2.92271 14.3996 3.4001 14.3996H5.4001C5.87749 14.3996 6.33532 14.21 6.67289 13.8724C7.01045 13.5348 7.2001 13.077 7.2001 12.5996V10.5996C7.2001 10.1222 7.01045 9.66438 6.67289 9.32682C6.33532 8.98925 5.87749 8.79961 5.4001 8.79961H3.4001ZM10.6001 1.59961C10.1227 1.59961 9.66487 1.78925 9.32731 2.12682C8.98974 2.46438 8.8001 2.92222 8.8001 3.39961V5.39961C8.8001 5.877 8.98974 6.33484 9.32731 6.6724C9.66487 7.00997 10.1227 7.19961 10.6001 7.19961H12.6001C13.0775 7.19961 13.5353 7.00997 13.8729 6.6724C14.2105 6.33484 14.4001 5.877 14.4001 5.39961V3.39961C14.4001 2.92222 14.2105 2.46438 13.8729 2.12682C13.5353 1.78925 13.0775 1.59961 12.6001 1.59961H10.6001ZM10.6001 8.79961C10.1227 8.79961 9.66487 8.98925 9.32731 9.32682C8.98974 9.66438 8.8001 10.1222 8.8001 10.5996V12.5996C8.8001 13.077 8.98974 13.5348 9.32731 13.8724C9.66487 14.21 10.1227 14.3996 10.6001 14.3996H12.6001C13.0775 14.3996 13.5353 14.21 13.8729 13.8724C14.2105 13.5348 14.4001 13.077 14.4001 12.5996V10.5996C14.4001 10.1222 14.2105 9.66438 13.8729 9.32682C13.5353 8.98925 13.0775 8.79961 12.6001 8.79961H10.6001Z" fill="#6F6F6F"/>
</svg>
