<svg width="16" height="16" viewBox="0 0 16 16" fill="none" xmlns="http://www.w3.org/2000/svg">
<path fill-rule="evenodd" clip-rule="evenodd" d="M6.2681 7.73561C7.96251 7.73561 9.3361 6.36202 9.3361 4.66761C9.3361 2.9732 7.96251 1.59961 6.2681 1.59961C4.57369 1.59961 3.2001 2.9732 3.2001 4.66761C3.2001 6.36202 4.57369 7.73561 6.2681 7.73561ZM10.9334 13.5996V12.2663C10.9334 11.559 10.6525 10.8808 10.1524 10.3807C9.65228 9.88056 8.97401 9.59961 8.26676 9.59961H4.26676C3.55952 9.59961 2.88124 9.88056 2.38115 10.3807C1.88105 10.8808 1.6001 11.559 1.6001 12.2663V13.5996H10.9334ZM10.4001 4.39961C10.4001 5.42521 9.97792 6.33812 9.32135 6.92375C10.6761 6.79619 11.7361 5.65569 11.7361 4.26761C11.7361 2.79411 10.5416 1.59961 9.0681 1.59961C9.03192 1.59961 8.99591 1.60033 8.96008 1.60176C9.81902 2.14825 10.4001 3.19638 10.4001 4.39961ZM12.5334 12.2663V13.5996H14.1334V12.2663C14.1334 11.559 13.8525 10.8808 13.3524 10.3807C12.8523 9.88056 12.174 9.59961 11.4668 9.59961H9.86677C10.574 9.59961 11.2523 9.88056 11.7524 10.3807C12.2525 10.8808 12.5334 11.559 12.5334 12.2663Z" fill="#6F6F6F"/>
</svg>
