<svg width="24" height="24" viewBox="0 0 24 24" fill="none" xmlns="http://www.w3.org/2000/svg">
<g id="IAM">
<path id="Subtract" fill-rule="evenodd" clip-rule="evenodd" d="M12.0375 1.5C12.2005 1.5 12.3584 1.55682 12.484 1.66069C15.1147 3.84961 18.3873 5.11996 21.8058 5.28164C21.96 5.28608 22.1079 5.34456 22.2234 5.44687C22.339 5.54919 22.4149 5.68884 22.438 5.84145C22.5289 6.52638 22.575 7.22449 22.575 7.93577C22.575 14.7351 18.281 20.532 12.2562 22.762C12.115 22.8141 11.96 22.8141 11.8188 22.762C5.79403 20.532 1.5 14.7351 1.5 7.93446C1.49975 7.23498 1.54551 6.53624 1.63699 5.84276C1.66003 5.69037 1.73579 5.55089 1.85108 5.4486C1.96636 5.34632 2.11387 5.2877 2.26792 5.28296C5.68684 5.12156 8.95991 3.84988 11.591 1.66069C11.7166 1.55682 11.8745 1.5 12.0375 1.5ZM13.9021 9.46363L14.1672 9.00385C14.2075 8.93298 14.2181 8.84906 14.1968 8.77038C14.1754 8.69171 14.1238 8.62468 14.0532 8.58391C13.9826 8.54315 13.8988 8.53197 13.8199 8.55281C13.7411 8.57364 13.6738 8.62481 13.6325 8.69514L13.3674 9.15451C13.0955 9.03419 12.8065 8.95698 12.5109 8.92564V8.39465C12.5109 8.31278 12.4783 8.23425 12.4204 8.17636C12.3625 8.11846 12.284 8.08594 12.2021 8.08594C12.1203 8.08594 12.0417 8.11846 11.9839 8.17636C11.926 8.23425 11.8934 8.31278 11.8934 8.39465V8.92564C11.5978 8.95698 11.3088 9.03419 11.0368 9.15451L10.7718 8.69514C10.7515 8.66 10.7245 8.6292 10.6923 8.6045C10.6602 8.57979 10.6234 8.56167 10.5843 8.55116C10.5051 8.52993 10.4208 8.541 10.3499 8.58194C10.2789 8.62288 10.2271 8.69033 10.2059 8.76945C10.1846 8.84858 10.1957 8.93289 10.2367 9.00385L10.5022 9.46363C10.2623 9.63921 10.0508 9.85065 9.87525 10.0905L9.41547 9.82504C9.38034 9.80477 9.34155 9.79161 9.30134 9.78633C9.26112 9.78105 9.22025 9.78374 9.18107 9.79425C9.1419 9.80476 9.10517 9.82289 9.073 9.84759C9.04082 9.8723 9.01383 9.9031 8.99356 9.93823C8.97329 9.97337 8.96014 10.0122 8.95486 10.0524C8.94958 10.0926 8.95227 10.1335 8.96278 10.1726C8.97329 10.2118 8.99142 10.2485 9.01612 10.2807C9.04082 10.3129 9.07162 10.3399 9.10676 10.3601L9.56613 10.6252C9.44581 10.8971 9.3686 11.1861 9.33727 11.4818H8.80627C8.7244 11.4818 8.64587 11.5143 8.58798 11.5722C8.53008 11.6301 8.49756 11.7087 8.49756 11.7905C8.49756 11.8724 8.53008 11.9509 8.58798 12.0088C8.64587 12.0667 8.7244 12.0992 8.80627 12.0992H9.33727C9.36937 12.401 9.4484 12.6891 9.56613 12.9558L9.10676 13.2213C9.07018 13.2408 9.0379 13.2674 9.01184 13.2997C8.98578 13.3319 8.96647 13.369 8.95506 13.4089C8.94366 13.4487 8.9404 13.4904 8.94546 13.5316C8.95053 13.5727 8.96383 13.6124 8.98456 13.6483C9.00529 13.6841 9.03304 13.7155 9.06614 13.7404C9.09924 13.7653 9.13703 13.7834 9.17724 13.7934C9.21745 13.8034 9.25927 13.8052 9.3002 13.7987C9.34113 13.7922 9.38033 13.7776 9.41547 13.7556L9.87525 13.4905C10.0508 13.7304 10.2623 13.9418 10.5022 14.1174L10.2367 14.5772C10.2164 14.6123 10.2032 14.6511 10.198 14.6913C10.1927 14.7316 10.1954 14.7724 10.2059 14.8116C10.2164 14.8508 10.2345 14.8875 10.2592 14.9197C10.2839 14.9519 10.3147 14.9788 10.3499 14.9991C10.385 15.0194 10.4238 15.0325 10.464 15.0378C10.5042 15.0431 10.5451 15.0404 10.5843 15.0299C10.6234 15.0194 10.6602 15.0013 10.6923 14.9766C10.7245 14.9519 10.7515 14.9211 10.7718 14.8859L11.0368 14.4265C11.3088 14.5469 11.5978 14.6241 11.8934 14.6554V15.1864C11.8934 15.2683 11.926 15.3468 11.9839 15.4047C12.0417 15.4626 12.1203 15.4951 12.2021 15.4951C12.284 15.4951 12.3625 15.4626 12.4204 15.4047C12.4783 15.3468 12.5109 15.2683 12.5109 15.1864V14.6554C12.8065 14.6241 13.0955 14.5469 13.3674 14.4265L13.6329 14.8859C13.6742 14.9562 13.7415 15.0074 13.8204 15.0282C13.8992 15.0491 13.983 15.0379 14.0536 14.9971C14.1242 14.9564 14.1758 14.8893 14.1972 14.8107C14.2186 14.732 14.2079 14.6481 14.1676 14.5772L13.9021 14.1174C14.142 13.9418 14.3535 13.7304 14.529 13.4905L14.9888 13.7556C15.0595 13.7932 15.1419 13.8019 15.2189 13.7799C15.2958 13.7579 15.3612 13.7069 15.4012 13.6376C15.4413 13.5683 15.4528 13.4861 15.4335 13.4085C15.4141 13.3308 15.3654 13.2637 15.2975 13.2213L14.8382 12.9558C14.9585 12.6839 15.0357 12.3949 15.067 12.0992H15.598C15.6799 12.0992 15.7584 12.0667 15.8163 12.0088C15.8742 11.9509 15.9067 11.8724 15.9067 11.7905C15.9067 11.7087 15.8742 11.6301 15.8163 11.5722C15.7584 11.5143 15.6799 11.4818 15.598 11.4818H15.067C15.0357 11.1861 14.9585 10.8971 14.8382 10.6252L15.2975 10.3601C15.3685 10.3192 15.4203 10.2518 15.4415 10.1726C15.4627 10.0935 15.4517 10.0092 15.4107 9.93823C15.3698 9.86727 15.3023 9.81548 15.2232 9.79425C15.1441 9.77303 15.0598 9.7841 14.9888 9.82504L14.529 10.0905C14.3533 9.85062 14.1418 9.63917 13.9017 9.46363H13.9021ZM12.2021 9.52661C11.7997 9.526 11.4044 9.63317 11.0574 9.83697C10.7152 10.038 10.4315 10.3251 10.2346 10.6697C10.0398 11.0111 9.93758 11.3975 9.93823 11.7905C9.93767 12.1923 10.0445 12.587 10.2478 12.9336C10.4491 13.2768 10.7369 13.5613 11.0825 13.7585C11.4127 13.947 11.7946 14.0544 12.2021 14.0544C12.6044 14.0551 12.9995 13.9481 13.3465 13.7445C13.6892 13.5431 13.9732 13.2554 14.1701 12.9101C14.3586 12.58 14.4661 12.198 14.4661 11.7905C14.4667 11.3883 14.3597 10.9932 14.1561 10.6462C13.9547 10.3033 13.6668 10.0192 13.3213 9.82215C12.9804 9.62788 12.5946 9.526 12.2021 9.52661ZM13.4469 11.4818C13.6404 11.4818 13.7873 11.3036 13.7091 11.1266C13.568 10.8064 13.3287 10.5394 13.0256 10.3645C12.7226 10.1895 12.3718 10.1156 12.0239 10.1535C11.8313 10.1741 11.7502 10.3906 11.8469 10.5586L12.2915 11.3275C12.3185 11.3744 12.3575 11.4133 12.4044 11.4404C12.4513 11.4675 12.5045 11.4818 12.5586 11.4818H13.4469ZM11.313 10.8677C11.2159 10.6997 10.9879 10.6619 10.8734 10.8183C10.6665 11.1002 10.5552 11.4409 10.5557 11.7905C10.5557 12.1544 10.6738 12.4903 10.8734 12.7632C10.9879 12.9196 11.2159 12.8813 11.313 12.7138L11.7568 11.9449C11.7839 11.898 11.7981 11.8447 11.7981 11.7905C11.7981 11.7364 11.7839 11.6831 11.7568 11.6362L11.313 10.8677ZM11.8473 13.0225C11.7506 13.1905 11.8313 13.407 12.0243 13.4276C12.3722 13.4655 12.723 13.3916 13.0261 13.2166C13.3291 13.0417 13.5685 12.7747 13.7095 12.4545C13.7877 12.2775 13.6404 12.0993 13.4469 12.0993H12.5586C12.5044 12.0992 12.4511 12.1135 12.4041 12.1406C12.3572 12.1677 12.3182 12.2067 12.2911 12.2536L11.8473 13.0225Z" fill="#3E63DD"/>
</g>
</svg>
