<svg width="20" height="20" viewBox="0 0 20 20" fill="none" xmlns="http://www.w3.org/2000/svg">
<path fill-rule="evenodd" clip-rule="evenodd" d="M6.42901 12.9278C6.33995 12.8855 6.2601 12.8261 6.19401 12.753C6.12783 12.6799 6.0767 12.5956 6.04355 12.5027C6.01039 12.4099 5.99586 12.3115 6.00078 12.213C6.00571 12.1146 6.02999 12.0181 6.07224 11.929C6.11449 11.8399 6.17388 11.7601 6.24701 11.694L15.303 3.5H12.75C12.5511 3.5 12.3603 3.42098 12.2197 3.28033C12.079 3.13968 12 2.94891 12 2.75C12 2.55109 12.079 2.36032 12.2197 2.21967C12.3603 2.07902 12.5511 2 12.75 2H17.25C17.4489 2 17.6397 2.07902 17.7803 2.21967C17.921 2.36032 18 2.55109 18 2.75V7.25C18 7.44891 17.921 7.63968 17.7803 7.78033C17.6397 7.92098 17.4489 8 17.25 8C17.0511 8 16.8603 7.92098 16.7197 7.78033C16.579 7.63968 16.5 7.44891 16.5 7.25V4.44L7.25401 12.806C7.18096 12.8722 7.09558 12.9233 7.00275 12.9565C6.90992 12.9896 6.81147 13.0041 6.71302 12.9992C6.61458 12.9943 6.51807 12.97 6.42901 12.9278ZM3.71967 5.71967C3.86032 5.57902 4.05109 5.5 4.25 5.5H9.25C9.44891 5.5 9.63968 5.42098 9.78033 5.28033C9.92098 5.13968 10 4.94891 10 4.75C10 4.55109 9.92098 4.36032 9.78033 4.21967C9.63968 4.07902 9.44891 4 9.25 4H4.25C3.65326 4 3.08097 4.23705 2.65901 4.65901C2.23705 5.08097 2 5.65326 2 6.25V14.75C2 15.3467 2.23705 15.919 2.65901 16.341C3.08097 16.7629 3.65326 17 4.25 17H12.75C13.3467 17 13.919 16.7629 14.341 16.341C14.7629 15.919 15 15.3467 15 14.75V10.75C15 10.5511 14.921 10.3603 14.7803 10.2197C14.6397 10.079 14.4489 10 14.25 10C14.0511 10 13.8603 10.079 13.7197 10.2197C13.579 10.3603 13.5 10.5511 13.5 10.75V14.75C13.5 14.9489 13.421 15.1397 13.2803 15.2803C13.1397 15.421 12.9489 15.5 12.75 15.5H4.25C3.836 15.5 3.5 15.164 3.5 14.75V6.25C3.5 6.05109 3.57902 5.86032 3.71967 5.71967Z" fill="#6F6F6F"/>
</svg>
