<svg version="1.1" xmlns="http://www.w3.org/2000/svg" viewBox="0 0 646.1788940429688 324.52899169921875" width="1292.3577880859375" height="649.0579833984375">
  <!-- svg-source:excalidraw -->
  
  <defs>
    <style>
      @font-face {
        font-family: "Virgil";
        src: url("https://excalidraw.com/Virgil.woff2");
      }
      @font-face {
        font-family: "Cascadia";
        src: url("https://excalidraw.com/Cascadia.woff2");
      }
    </style>
  </defs>
  <rect x="0" y="0" width="646.1788940429688" height="324.52899169921875" fill="#ffffff"></rect><g transform="translate(480.69000244140625 151.85458374023438) rotate(0 39.5 12.5)"><text x="0" y="18" font-family="Virgil, Segoe UI Emoji" font-size="20px" fill="#000000" text-anchor="start" style="white-space: pre;" direction="ltr">SpiceDB</text></g><g stroke-linecap="round" transform="translate(465.72979736328125 116.4156494140625) rotate(0 55.5 41.84999084472656)"><path d="M0 0 C28.88 0, 57.76 0, 111 0 M0 0 C30.91 0, 61.82 0, 111 0 M111 0 C111 21.34, 111 42.69, 111 83.7 M111 0 C111 17.11, 111 34.22, 111 83.7 M111 83.7 C84.83 83.7, 58.67 83.7, 0 83.7 M111 83.7 C73.24 83.7, 35.47 83.7, 0 83.7 M0 83.7 C0 59.66, 0 35.61, 0 0 M0 83.7 C0 56.58, 0 29.46, 0 0" stroke="#000000" stroke-width="1" fill="none"></path></g><g stroke-linecap="round" transform="translate(223.750244140625 116.2135009765625) rotate(0 81.23223876953125 49.899749755859375)"><path d="M-1.69 0.04 C62.71 1.41, 123.35 0.9, 161.21 -0.57 M-0.36 -0.48 C61.64 -1.29, 123.77 -1.1, 162.69 -0.78 M164.24 -0.95 C161.81 25.36, 163.53 49.52, 160.69 99.65 M162.4 -0.33 C162.84 21.77, 163.36 42.03, 162.75 100.75 M161.36 98.34 C126.91 101.47, 93.99 100.92, -1.51 99.3 M162.11 99.06 C125.8 99.54, 89.8 98.69, 0.03 100.49 M-0.46 99.73 C-1.07 65.73, 1.37 30.86, -0.92 -0.56 M0.85 100.27 C1.5 74.87, 1.48 50.8, 0.43 0.6" stroke="#000000" stroke-width="1" fill="none"></path></g><g transform="translate(252.40228271484375 138.32150268554688) rotate(0 51.23040771484375 23.286548961292624)"><text x="0" y="32.57309792258525" font-family="Virgil, Segoe UI Emoji" font-size="37.2584783380682px" fill="#000000" text-anchor="start" style="white-space: pre;" direction="ltr">Frontier</text></g><g stroke-linecap="round" transform="translate(260.68792724609375 254.52899169921875) rotate(0 50.5 30)"><path d="M15 0 M15 0 C34.06 1.26, 58.08 0.87, 86 0 M15 0 C32.35 -0.39, 51.52 0.06, 86 0 M86 0 C96.67 1.47, 101.04 4.4, 101 15 M86 0 C96.73 -0.53, 103.24 2.92, 101 15 M101 15 C100.05 26.78, 101.63 36.7, 101 45 M101 15 C101.13 21.66, 100.95 28.33, 101 45 M101 45 C101.53 55.3, 94.96 58.68, 86 60 M101 45 C100.91 55.94, 96.51 58.31, 86 60 M86 60 C68.27 60.67, 52.47 58.64, 15 60 M86 60 C60.4 60.92, 33.45 60.99, 15 60 M15 60 C4.82 58, -1.54 54.39, 0 45 M15 60 C4.94 60.85, -1.76 54.75, 0 45 M0 45 C-0.4 35.55, -1.8 25.44, 0 15 M0 45 C-0.92 34.36, -0.17 24.39, 0 15 M0 15 C-1.06 6.65, 4.44 0.65, 15 0 M0 15 C2.29 5.73, 6.79 -0.46, 15 0" stroke="#000000" stroke-width="1" fill="none"></path></g><g stroke-linecap="round" transform="translate(523.1788940429688 230.216796875) rotate(0 56.5 30)"><path d="M15 0 M15 0 C39.44 0.63, 64.16 -1.24, 98 0 M15 0 C41.36 -0.59, 69.93 -1.51, 98 0 M98 0 C108.89 0.06, 113.27 5.94, 113 15 M98 0 C109.73 -0.48, 110.7 3.85, 113 15 M113 15 C114.09 24.03, 113.72 32.71, 113 45 M113 15 C112.15 24.38, 112.46 33.84, 113 45 M113 45 C113.38 56.14, 109.6 59.31, 98 60 M113 45 C112.71 53.53, 106.16 57.91, 98 60 M98 60 C67.97 58.99, 39.07 61.57, 15 60 M98 60 C70.83 58.8, 42.7 60.16, 15 60 M15 60 C4.92 61.29, -1.13 56.62, 0 45 M15 60 C6.6 58.21, -0.5 57.27, 0 45 M0 45 C-0.44 36.28, 1.74 24.76, 0 15 M0 45 C0.31 35.83, 0.84 28.03, 0 15 M0 15 C1.55 4.16, 4.82 -0.72, 15 0 M0 15 C2.25 3.59, 3.8 -1.26, 15 0" stroke="#000000" stroke-width="1" fill="none"></path></g><g transform="translate(265.68792724609375 259.52899169921875) rotate(0 45.5 25)"><text x="45.5" y="18" font-family="Virgil, Segoe UI Emoji" font-size="20px" fill="#000000" text-anchor="middle" style="white-space: pre;" direction="ltr">Postgres</text><text x="45.5" y="43" font-family="Virgil, Segoe UI Emoji" font-size="20px" fill="#000000" text-anchor="middle" style="white-space: pre;" direction="ltr">DB</text></g><g transform="translate(528.1788940429688 235.216796875) rotate(0 51.5 25)"><text x="51.5" y="18" font-family="Virgil, Segoe UI Emoji" font-size="20px" fill="#000000" text-anchor="middle" style="white-space: pre;" direction="ltr">Postgres</text><text x="51.5" y="43" font-family="Virgil, Segoe UI Emoji" font-size="20px" fill="#000000" text-anchor="middle" style="white-space: pre;" direction="ltr">DB</text></g><g stroke-linecap="round"><g transform="translate(311.89874267578125 216.32891845703125) rotate(0 0.0745849609375 20.141845703125)"><path d="M0 0 C0.02 6.71, 0.12 33.57, 0.15 40.28 M0 0 C0.02 6.71, 0.12 33.57, 0.15 40.28" stroke="#000000" stroke-width="1" fill="none"></path></g><g transform="translate(311.89874267578125 216.32891845703125) rotate(0 0.0745849609375 20.141845703125)"><path d="M-6.81 21.38 C-4.05 28.88, -1.29 36.38, 0.15 40.28 M-6.81 21.38 C-4.97 26.37, -3.14 31.36, 0.15 40.28" stroke="#000000" stroke-width="1" fill="none"></path></g><g transform="translate(311.89874267578125 216.32891845703125) rotate(0 0.0745849609375 20.141845703125)"><path d="M6.97 21.33 C4.26 28.85, 1.56 36.37, 0.15 40.28 M6.97 21.33 C5.17 26.33, 3.37 31.33, 0.15 40.28" stroke="#000000" stroke-width="1" fill="none"></path></g></g><g stroke-linecap="round"><g transform="translate(576.9402435166792 201.09323655384821) rotate(0 0.8918227197133319 14.061780160575921)"><path d="M0 0 C0.3 4.69, 1.49 23.44, 1.78 28.12 M0 0 C0.3 4.69, 1.49 23.44, 1.78 28.12" stroke="#000000" stroke-width="1" fill="none"></path></g><g transform="translate(576.9402435166792 201.09323655384821) rotate(0 0.8918227197133319 14.061780160575921)"><path d="M-3.86 15.21 C-2.54 18.24, -1.22 21.27, 1.78 28.12 M-3.86 15.21 C-2.23 18.95, -0.59 22.69, 1.78 28.12" stroke="#000000" stroke-width="1" fill="none"></path></g><g transform="translate(576.9402435166792 201.09323655384821) rotate(0 0.8918227197133319 14.061780160575921)"><path d="M5.76 14.6 C4.82 17.77, 3.89 20.94, 1.78 28.12 M5.76 14.6 C4.61 18.52, 3.46 22.43, 1.78 28.12" stroke="#000000" stroke-width="1" fill="none"></path></g></g><g stroke-linecap="round"><g transform="translate(390.18707275390625 165.7458797724599) rotate(0 37.2713623046875 0.7381255001768068)"><path d="M0 0 C12.42 0.25, 62.12 1.23, 74.54 1.48 M0 0 C12.42 0.25, 62.12 1.23, 74.54 1.48" stroke="#000000" stroke-width="1" fill="none"></path></g><g transform="translate(390.18707275390625 165.7458797724599) rotate(0 37.2713623046875 0.7381255001768068)"><path d="M46.15 11.18 C52.53 9, 58.9 6.82, 74.54 1.48 M46.15 11.18 C55.16 8.1, 64.17 5.02, 74.54 1.48" stroke="#000000" stroke-width="1" fill="none"></path></g><g transform="translate(390.18707275390625 165.7458797724599) rotate(0 37.2713623046875 0.7381255001768068)"><path d="M46.56 -9.34 C52.84 -6.91, 59.13 -4.48, 74.54 1.48 M46.56 -9.34 C55.44 -5.91, 64.31 -2.48, 74.54 1.48" stroke="#000000" stroke-width="1" fill="none"></path></g></g><g stroke-linecap="round" transform="translate(231.32220458984375 10.6983642578125) rotate(0 52.5 24.8619384765625)"><path d="M0 0 C23.69 0, 47.38 0, 105 0 M0 0 C39.13 0, 78.26 0, 105 0 M105 0 C105 19.74, 105 39.48, 105 49.72 M105 0 C105 18.39, 105 36.77, 105 49.72 M105 49.72 C67.84 49.72, 30.67 49.72, 0 49.72 M105 49.72 C75.27 49.72, 45.54 49.72, 0 49.72 M0 49.72 C0 30.36, 0 11.01, 0 0 M0 49.72 C0 35.93, 0 22.13, 0 0" stroke="#000000" stroke-width="1" fill="none"></path></g><g stroke-linecap="round" transform="translate(348.11907958984375 10) rotate(0 52.5 24.8619384765625)"><path d="M0 0 C32.81 0, 65.62 0, 105 0 M0 0 C39.14 0, 78.27 0, 105 0 M105 0 C105 15.89, 105 31.79, 105 49.72 M105 0 C105 17.89, 105 35.77, 105 49.72 M105 49.72 C72.77 49.72, 40.54 49.72, 0 49.72 M105 49.72 C78.54 49.72, 52.07 49.72, 0 49.72 M0 49.72 C0 35.44, 0 21.16, 0 0 M0 49.72 C0 35.75, 0 21.78, 0 0" stroke="#000000" stroke-width="1" fill="none"></path></g><g transform="translate(236.32220458984375 25.560302734375) rotate(0 47.5 10)"><text x="47.5" y="14" font-family="Virgil, Segoe UI Emoji" font-size="16px" fill="#000000" text-anchor="middle" style="white-space: pre;" direction="ltr">Service A</text></g><g transform="translate(353.11907958984375 24.8619384765625) rotate(0 47.5 10)"><text x="47.5" y="14" font-family="Virgil, Segoe UI Emoji" font-size="16px" fill="#000000" text-anchor="middle" style="white-space: pre;" direction="ltr">Service B</text></g><g stroke-linecap="round"><g transform="translate(266.96124267578125 116.33377075195312) rotate(0 0.528641180112345 -27.2422637939453)"><path d="M0 0 C0.18 -9.08, 0.88 -45.4, 1.06 -54.48 M0 0 C0.18 -9.08, 0.88 -45.4, 1.06 -54.48" stroke="#000000" stroke-width="1" fill="none"></path></g><g transform="translate(266.96124267578125 116.33377075195312) rotate(0 0.528641180112345 -27.2422637939453)"><path d="M9.88 -28.7 C7.74 -34.95, 5.6 -41.2, 1.06 -54.48 M9.88 -28.7 C7.54 -35.55, 5.2 -42.39, 1.06 -54.48" stroke="#000000" stroke-width="1" fill="none"></path></g><g transform="translate(266.96124267578125 116.33377075195312) rotate(0 0.528641180112345 -27.2422637939453)"><path d="M-8.76 -29.07 C-6.38 -35.23, -4 -41.39, 1.06 -54.48 M-8.76 -29.07 C-6.15 -35.81, -3.55 -42.56, 1.06 -54.48" stroke="#000000" stroke-width="1" fill="none"></path></g></g><g stroke-linecap="round"><g transform="translate(359.42268742249803 114.00640869140625) rotate(0 -0.03241006711039063 -26.641265869140625)"><path d="M0 0 C-0.01 -8.88, -0.05 -44.4, -0.06 -53.28 M0 0 C-0.01 -8.88, -0.05 -44.4, -0.06 -53.28" stroke="#000000" stroke-width="1" fill="none"></path></g><g transform="translate(359.42268742249803 114.00640869140625) rotate(0 -0.03241006711039063 -26.641265869140625)"><path d="M9.08 -28.26 C5.98 -36.73, 2.89 -45.2, -0.06 -53.28 M9.08 -28.26 C6.44 -35.47, 3.81 -42.67, -0.06 -53.28" stroke="#000000" stroke-width="1" fill="none"></path></g><g transform="translate(359.42268742249803 114.00640869140625) rotate(0 -0.03241006711039063 -26.641265869140625)"><path d="M-9.15 -28.24 C-6.07 -36.71, -3 -45.19, -0.06 -53.28 M-9.15 -28.24 C-6.53 -35.45, -3.92 -42.66, -0.06 -53.28" stroke="#000000" stroke-width="1" fill="none"></path></g></g><g stroke-linecap="round"><g transform="translate(133.50945283666852 161.5871125751014) rotate(0 46.17633437268137 0.2741927358867997)"><path d="M0 0 C15.39 0.09, 76.96 0.46, 92.35 0.55 M0 0 C15.39 0.09, 76.96 0.46, 92.35 0.55" stroke="#000000" stroke-width="1" fill="none"></path></g><g transform="translate(133.50945283666852 161.5871125751014) rotate(0 46.17633437268137 0.2741927358867997)"><path d="M64.1 10.64 C74.37 6.97, 84.63 3.31, 92.35 0.55 M64.1 10.64 C70.21 8.46, 76.32 6.28, 92.35 0.55" stroke="#000000" stroke-width="1" fill="none"></path></g><g transform="translate(133.50945283666852 161.5871125751014) rotate(0 46.17633437268137 0.2741927358867997)"><path d="M64.22 -9.88 C74.44 -6.09, 84.66 -2.3, 92.35 0.55 M64.22 -9.88 C70.3 -7.63, 76.39 -5.37, 92.35 0.55" stroke="#000000" stroke-width="1" fill="none"></path></g></g><g stroke-linecap="round" transform="translate(10 112.76992797851562) rotate(0 58.555633544921875 56.879974365234375)"><path d="M117.11 56.88 C117.11 59.17, 116.97 61.47, 116.68 63.74 C116.4 66, 115.97 68.27, 115.41 70.49 C114.85 72.71, 114.14 74.91, 113.31 77.05 C112.47 79.19, 111.5 81.29, 110.4 83.31 C109.31 85.34, 108.08 87.31, 106.75 89.19 C105.41 91.07, 103.95 92.89, 102.39 94.6 C100.83 96.31, 99.15 97.94, 97.39 99.46 C95.62 100.97, 93.76 102.39, 91.82 103.69 C89.88 104.99, 87.85 106.18, 85.77 107.24 C83.68 108.31, 81.52 109.25, 79.32 110.06 C77.12 110.87, 74.85 111.56, 72.57 112.11 C70.28 112.65, 67.95 113.07, 65.61 113.35 C63.28 113.62, 60.91 113.76, 58.56 113.76 C56.2 113.76, 53.83 113.62, 51.5 113.35 C49.16 113.07, 46.83 112.65, 44.54 112.11 C42.26 111.56, 39.99 110.87, 37.79 110.06 C35.59 109.25, 33.43 108.31, 31.34 107.24 C29.26 106.18, 27.23 104.99, 25.29 103.69 C23.36 102.39, 21.49 100.97, 19.73 99.46 C17.97 97.94, 16.29 96.31, 14.73 94.6 C13.17 92.89, 11.7 91.07, 10.37 89.19 C9.03 87.31, 7.8 85.34, 6.71 83.31 C5.61 81.29, 4.64 79.19, 3.81 77.05 C2.97 74.91, 2.26 72.71, 1.7 70.49 C1.14 68.27, 0.71 66, 0.43 63.74 C0.14 61.47, 0 59.17, 0 56.88 C0 54.59, 0.14 52.29, 0.43 50.02 C0.71 47.76, 1.14 45.49, 1.7 43.27 C2.26 41.05, 2.97 38.85, 3.81 36.71 C4.64 34.57, 5.61 32.47, 6.71 30.45 C7.8 28.42, 9.03 26.45, 10.37 24.57 C11.7 22.69, 13.17 20.87, 14.73 19.16 C16.29 17.45, 17.97 15.82, 19.73 14.3 C21.49 12.79, 23.36 11.37, 25.29 10.07 C27.23 8.77, 29.26 7.58, 31.34 6.52 C33.43 5.45, 35.59 4.51, 37.79 3.7 C39.99 2.89, 42.26 2.2, 44.54 1.65 C46.83 1.11, 49.16 0.69, 51.5 0.41 C53.83 0.14, 56.2 0, 58.56 0 C60.91 0, 63.28 0.14, 65.61 0.41 C67.95 0.69, 70.28 1.11, 72.57 1.65 C74.85 2.2, 77.12 2.89, 79.32 3.7 C81.52 4.51, 83.68 5.45, 85.77 6.52 C87.85 7.58, 89.88 8.77, 91.82 10.07 C93.76 11.37, 95.62 12.79, 97.39 14.3 C99.15 15.82, 100.83 17.45, 102.39 19.16 C103.95 20.87, 105.41 22.69, 106.75 24.57 C108.08 26.45, 109.31 28.42, 110.4 30.45 C111.5 32.47, 112.47 34.57, 113.31 36.71 C114.14 38.85, 114.85 41.05, 115.41 43.27 C115.97 45.49, 116.4 47.76, 116.68 50.02 C116.97 52.29, 117.11 54.59, 117.11 56.88" stroke="#000000" stroke-width="1" fill="none"></path></g><g transform="translate(40.58868408203125 151.86956787109375) rotate(0 29 20)"><text x="0" y="14" font-family="Virgil, Segoe UI Emoji" font-size="16px" fill="#000000" text-anchor="start" style="white-space: pre;" direction="ltr">Clients</text><text x="0" y="34" font-family="Virgil, Segoe UI Emoji" font-size="16px" fill="#000000" text-anchor="start" style="white-space: pre;" direction="ltr">UI/CLI</text></g></svg>