<?xml version="1.0" encoding="UTF-8"?>
<svg width="32px" height="32px" viewBox="0 0 32 32" version="1.1" xmlns="http://www.w3.org/2000/svg" xmlns:xlink="http://www.w3.org/1999/xlink">
    <title>Logos/Coloured/shield</title>
    <g id="Home" stroke="none" stroke-width="1" fill="none" fill-rule="evenodd">
        <g id="Products" transform="translate(-69.000000, -254.000000)">
            <g id="Shield" transform="translate(69.000000, 254.000000)">
                <path d="M32,16 C32,24.83675 24.83675,32 16,32 C7.1635,32 0,24.83675 0,16 C0,7.16325 7.1635,0 16,0 C24.83675,0 32,7.16325 32,16" id="Fill-144" fill="#004656"></path>
                <path d="M7.763675,11.1018 C7.141175,12.1918 6.728925,13.4173 6.582925,14.72205 C6.573925,14.80405 6.673175,14.8533 6.733425,14.7978 L9.139925,12.5873 C9.175925,12.55455 9.178675,12.49855 9.145925,12.46205 L7.909425,11.08655 C7.868425,11.0413 7.793925,11.0488 7.763675,11.1018" id="Fill-146" fill="#66CEE6"></path>
                <path d="M9.926775,13.511475 L6.598025,16.571725 C6.570025,16.597475 6.555525,16.634975 6.559025,16.672975 C6.625775,17.392725 6.769775,18.088475 6.986775,18.752975 C7.014525,18.837475 7.123025,18.862725 7.186275,18.800225 L11.167275,14.879725 C11.213025,14.834975 11.215025,14.761975 11.172275,14.714475 L10.096775,13.519475 C10.052025,13.470225 9.975775,13.466475 9.926775,13.511475" id="Fill-148" fill="#66CEE6"></path>
                <path d="M11.88355,15.878175 L7.69105,20.008175 C7.61655,20.081675 7.59755,20.196925 7.6473,20.289675 C8.0218,20.986925 8.4823,21.631925 9.01305,22.210175 C9.1118,22.317925 9.2858,22.307425 9.37455,22.191175 L13.16505,17.223675 C13.2338,17.133425 13.2288,17.007175 13.15305,16.922675 L12.2248,15.888425 C12.13505,15.788425 11.97955,15.783425 11.88355,15.878175" id="Fill-150" fill="#66CEE6"></path>
                <path d="M16.451175,19.58595 C16.335925,19.71345 16.171925,19.78645 15.998675,19.78645 C15.828675,19.78645 15.661675,19.71345 15.549425,19.58595 L14.257675,18.1497 C14.180675,18.06445 14.045175,18.06995 13.975675,18.1612 L10.220925,23.0877 C10.159675,23.16795 10.174175,23.28445 10.254425,23.3457 C12.016425,24.68995 14.261425,25.43045 16.682175,25.26195 C18.570925,25.12995 20.312175,24.43495 21.740675,23.33695 C21.820925,23.27545 21.834925,23.1592 21.773675,23.07895 L18.024925,18.1612 C17.955175,18.06995 17.819925,18.06445 17.742925,18.1497 L16.451175,19.58595 Z" id="Fill-152" fill="#66CEE6"></path>
                <path d="M16.3296,17.902825 L23.3126,10.133325 C23.40135,10.034075 23.40735,9.884075 23.3231,9.781075 C23.1161,9.527325 22.89535,9.284075 22.66135,9.053075 C22.5666,8.959575 22.41635,8.950825 22.30935,9.030575 L18.21785,12.071575 C18.1616,12.113325 18.08135,12.090075 18.05585,12.025075 L17.20135,9.840075 C17.03735,9.420825 17.32585,8.944075 17.77535,8.938075 L18.26135,8.938075 C18.10335,8.619075 17.7056,8.579575 17.7056,8.579575 L16.15685,8.579575 C15.6371,8.579575 15.1666,8.898575 14.97835,9.384575 L13.9476,12.025075 C13.9221,12.090075 13.84185,12.113325 13.78585,12.071575 L9.6946,9.030825 C9.58735,8.951075 9.4371,8.959825 9.34235,9.053825 C9.10985,9.283825 8.8881,9.525325 8.6826,9.778075 C8.5986,9.881075 8.6051,10.031075 8.6936,10.129825 L15.6681,17.902325 C15.84485,18.099075 16.15285,18.099325 16.3296,17.902825" id="Fill-154" fill="#66CEE6"></path>
                <path d="M18.817875,17.20045 L22.645375,22.2182 C22.720625,22.3172 22.868875,22.3262 22.953375,22.2352 C23.504125,21.6427 23.979125,20.97945 24.362375,20.26345 C24.404625,20.1847 24.388625,20.0862 24.324625,20.02345 L20.090875,15.8522 C20.009125,15.7717 19.876625,15.77595 19.800125,15.86145 L18.828125,16.94445 C18.763375,17.0162 18.759375,17.1237 18.817875,17.20045" id="Fill-156" fill="#66CEE6"></path>
                <path d="M20.8252,14.871825 L24.8277,18.810825 C24.8847,18.866825 24.9827,18.844575 25.0077,18.768325 C25.2292,18.098325 25.3777,17.392825 25.4422,16.666825 C25.4452,16.632825 25.4322,16.598825 25.40695,16.575825 L22.06495,13.503575 C22.0207,13.462825 21.95195,13.466325 21.9117,13.511075 L20.8207,14.722575 C20.78195,14.765575 20.7842,14.831575 20.8252,14.871825" id="Fill-158" fill="#66CEE6"></path>
                <path d="M22.88625,12.611075 L25.17025,14.706575 C25.268,14.796325 25.42275,14.713575 25.40575,14.581825 C25.24625,13.345075 24.85,12.186075 24.261,11.146825 C24.219,11.073075 24.1155,11.062575 24.0585,11.125825 L22.878,12.436325 C22.83225,12.487075 22.836,12.564825 22.88625,12.611075" id="Fill-160" fill="#66CEE6"></path>
            </g>
        </g>
    </g>
</svg>