<svg width="16" height="16" viewBox="0 0 16 16" fill="none" xmlns="http://www.w3.org/2000/svg">
<g id="compass">
<path id="Subtract" fill-rule="evenodd" clip-rule="evenodd" d="M14.6667 7.99998C14.6667 11.6819 11.6819 14.6666 8.00001 14.6666C4.31811 14.6666 1.33334 11.6819 1.33334 7.99998C1.33334 4.31808 4.31811 1.33331 8.00001 1.33331C11.6819 1.33331 14.6667 4.31808 14.6667 7.99998ZM10.7634 5.36305C10.7895 5.28488 10.7151 5.2105 10.6369 5.23656L6.63411 6.57084C6.60425 6.58079 6.58082 6.60422 6.57087 6.63408L5.23659 10.6369C5.21053 10.7151 5.28491 10.7895 5.36308 10.7634L9.36591 9.42913C9.39577 9.41917 9.4192 9.39574 9.42916 9.36588L10.7634 5.36305Z" fill="#646464"/>
</g>
</svg>
