<svg xmlns="http://www.w3.org/2000/svg" width="16" height="16" viewBox="0 0 16 16" fill="none">
  <path d="M6 4.50001V10M10 6.00001V11.5M10.3353 13.832L13.5853 12.2073C13.8393 12.0807 14 11.8207 14 11.5367V3.21334C14 2.65601 13.4133 2.29334 12.9147 2.54267L10.3353 3.83201C10.124 3.93801 9.87533 3.93801 9.66467 3.83201L6.33533 2.16801C6.23121 2.11596 6.1164 2.08887 6 2.08887C5.8836 2.08887 5.76879 2.11596 5.66467 2.16801L2.41467 3.79268C2.16 3.92001 2 4.18001 2 4.46334V12.7867C2 13.344 2.58667 13.7067 3.08533 13.4573L5.66467 12.168C5.876 12.062 6.12467 12.062 6.33533 12.168L9.66467 13.8327C9.876 13.938 10.1247 13.938 10.3353 13.8327V13.832Z" stroke="currentColor" stroke-linecap="round" stroke-linejoin="round"/>
</svg>