<svg width="16" height="16" viewBox="0 0 16 16" fill="none" xmlns="http://www.w3.org/2000/svg">
<g id="user 2">
<path id="Vector" fill-rule="evenodd" clip-rule="evenodd" d="M14.4 8.00001C14.4 9.69739 13.7257 11.3253 12.5255 12.5255C11.3253 13.7257 9.69739 14.4 8.00001 14.4C6.30262 14.4 4.67476 13.7257 3.47452 12.5255C2.27429 11.3253 1.60001 9.69739 1.60001 8.00001C1.60001 6.30262 2.27429 4.67476 3.47452 3.47452C4.67476 2.27429 6.30262 1.60001 8.00001 1.60001C9.69739 1.60001 11.3253 2.27429 12.5255 3.47452C13.7257 4.67476 14.4 6.30262 14.4 8.00001ZM10 6.00001C10 6.53044 9.78929 7.03915 9.41422 7.41422C9.03915 7.78929 8.53044 8.00001 8.00001 8.00001C7.46957 8.00001 6.96087 7.78929 6.58579 7.41422C6.21072 7.03915 6.00001 6.53044 6.00001 6.00001C6.00001 5.46957 6.21072 4.96087 6.58579 4.58579C6.96087 4.21072 7.46957 4.00001 8.00001 4.00001C8.53044 4.00001 9.03915 4.21072 9.41422 4.58579C9.78929 4.96087 10 5.46957 10 6.00001ZM8.00001 9.60001C7.25634 9.59932 6.52272 9.77173 5.85721 10.1036C5.19169 10.4354 4.61255 10.9176 4.16561 11.512C4.6522 12.0446 5.24454 12.4698 5.90478 12.7604C6.56502 13.0511 7.27863 13.2008 8.00001 13.2C8.72139 13.2008 9.435 13.0511 10.0952 12.7604C10.7555 12.4698 11.3478 12.0446 11.8344 11.512C11.3875 10.9176 10.8083 10.4354 10.1428 10.1036C9.47729 9.77173 8.74367 9.59932 8.00001 9.60001Z" fill="#646464"/>
</g>
</svg>
