<svg xmlns="http://www.w3.org/2000/svg" width="16" height="16" viewBox="0 0 16 16" fill="none">
  <path d="M9.99996 1.33337H3.99996C3.64634 1.33337 3.3072 1.47385 3.05715 1.7239C2.8071 1.97395 2.66663 2.31309 2.66663 2.66671V13.3334C2.66663 13.687 2.8071 14.0261 3.05715 14.2762C3.3072 14.5262 3.64634 14.6667 3.99996 14.6667H12C12.3536 14.6667 12.6927 14.5262 12.9428 14.2762C13.1928 14.0261 13.3333 13.687 13.3333 13.3334V4.66671L9.99996 1.33337Z" stroke="currentColor" stroke-linecap="round" stroke-linejoin="round"/>
  <path d="M9.33337 1.33337V4.00004C9.33337 4.35366 9.47385 4.6928 9.7239 4.94285C9.97395 5.1929 10.3131 5.33337 10.6667 5.33337H13.3334" stroke="currentColor" stroke-linecap="round" stroke-linejoin="round"/>
  <path d="M6.66671 8C6.4899 8 6.32033 8.07024 6.1953 8.19526C6.07028 8.32029 6.00004 8.48986 6.00004 8.66667V9.33333C6.00004 9.51014 5.9298 9.67971 5.80478 9.80474C5.67975 9.92976 5.51019 10 5.33337 10C5.51019 10 5.67975 10.0702 5.80478 10.1953C5.9298 10.3203 6.00004 10.4899 6.00004 10.6667V11.3333C6.00004 11.5101 6.07028 11.6797 6.1953 11.8047C6.32033 11.9298 6.4899 12 6.66671 12" stroke="currentColor" stroke-linecap="round" stroke-linejoin="round"/>
  <path d="M9.33337 12C9.51019 12 9.67975 11.9298 9.80478 11.8047C9.9298 11.6797 10 11.5101 10 11.3333V10.6667C10 10.4899 10.0703 10.3203 10.1953 10.1953C10.3203 10.0702 10.4899 10 10.6667 10C10.4899 10 10.3203 9.92976 10.1953 9.80474C10.0703 9.67971 10 9.51014 10 9.33333V8.66667C10 8.48986 9.9298 8.32029 9.80478 8.19526C9.67975 8.07024 9.51019 8 9.33337 8" stroke="currentColor" stroke-linecap="round" stroke-linejoin="round"/>
</svg>