<svg xmlns="http://www.w3.org/2000/svg" width="88" height="88" viewBox="0 0 88 88" fill="none">
  <path fill-rule="evenodd" clip-rule="evenodd" d="M77.0491 24.2L67.5712 35.4949C66.678 36.5596 65.0913 36.6985 64.0266 35.8057C63.914 35.7115 63.81 35.6075 63.7158 35.4949L54.3423 24.3248L77.0491 24.2ZM35.1211 47.0779L21.4594 63.3591H8.79999L22.4629 47.0779C24.0331 45.2071 24.0331 42.4788 22.4629 40.608L8.79999 24.3244H21.4594L35.1223 40.608C36.6917 42.4792 36.6913 45.2071 35.1211 47.0779ZM77.0008 63.3595H77.0015L77.0012 63.3599L77.0008 63.3595ZM64.3421 63.3595H77.0008L44.2459 24.3252H31.5877L45.2506 40.6076C46.8203 42.4788 46.8203 45.2071 45.2506 47.0782L31.5877 63.3595H44.1902L52.3373 53.6493C52.4315 53.5371 52.5355 53.4331 52.6477 53.3389C53.7124 52.4453 55.3002 52.5842 56.1938 53.6493L64.3421 63.3595Z" fill="#202020"/>
</svg>