<svg width="16" height="16" viewBox="0 0 16 16" fill="none" xmlns="http://www.w3.org/2000/svg">
<path fill-rule="evenodd" clip-rule="evenodd" d="M7.9999 0.799805C8.10679 0.799805 8.21175 0.828361 8.3039 0.882519L14.1039 4.28252C14.1942 4.33544 14.269 4.41106 14.3211 4.50186C14.3731 4.59265 14.4004 4.69548 14.4004 4.80012C14.4004 4.90476 14.3731 5.00759 14.3211 5.09838C14.269 5.18918 14.1942 5.26479 14.1039 5.31772L8.3039 8.71772C8.21175 8.77188 8.10679 8.80044 7.9999 8.80044C7.89301 8.80044 7.78806 8.77188 7.6959 8.71772L1.8959 5.31772C1.80563 5.26479 1.73077 5.18918 1.67875 5.09838C1.62673 5.00759 1.59937 4.90476 1.59937 4.80012C1.59937 4.69548 1.62673 4.59265 1.67875 4.50186C1.73077 4.41106 1.80563 4.33544 1.8959 4.28252L7.6959 0.882519C7.78806 0.828361 7.89301 0.799805 7.9999 0.799805ZM2.5567 7.09611L1.8967 7.48251C1.80643 7.53544 1.73157 7.61105 1.67955 7.70185C1.62753 7.79265 1.60016 7.89547 1.60016 8.00011C1.60016 8.10475 1.62753 8.20758 1.67955 8.29838C1.73157 8.38917 1.80643 8.46479 1.8967 8.51771L7.6967 11.9177C7.78867 11.9716 7.89332 12 7.9999 12C8.10648 12 8.21113 11.9716 8.3031 11.9177L14.1031 8.51771C14.1934 8.46479 14.2682 8.38917 14.3203 8.29838C14.3723 8.20758 14.3996 8.10475 14.3996 8.00011C14.3996 7.89547 14.3723 7.79265 14.3203 7.70185C14.2682 7.61105 14.1934 7.53544 14.1031 7.48251L13.4431 7.09531L8.9103 9.75291C8.63421 9.91479 8.31995 10.0001 7.9999 10.0001C7.67985 10.0001 7.36559 9.91479 7.0895 9.75291L2.5567 7.09611ZM2.5567 10.2961L1.8967 10.6825C1.80643 10.7354 1.73157 10.8111 1.67955 10.9018C1.62753 10.9926 1.60016 11.0955 1.60016 11.2001C1.60016 11.3048 1.62753 11.4076 1.67955 11.4984C1.73157 11.5892 1.80643 11.6648 1.8967 11.7177L7.6967 15.1177C7.78867 15.1716 7.89332 15.2 7.9999 15.2C8.10648 15.2 8.21113 15.1716 8.3031 15.1177L14.1031 11.7177C14.1934 11.6648 14.2682 11.5892 14.3203 11.4984C14.3723 11.4076 14.3996 11.3048 14.3996 11.2001C14.3996 11.0955 14.3723 10.9926 14.3203 10.9018C14.2682 10.8111 14.1934 10.7354 14.1031 10.6825L13.4431 10.2953L8.9103 12.9529C8.63421 13.1148 8.31995 13.2001 7.9999 13.2001C7.67985 13.2001 7.36559 13.1148 7.0895 12.9529L2.5567 10.2961Z" fill="#6F6F6F"/>
</svg>
