<svg width="16" height="16" viewBox="0 0 16 16" fill="none" xmlns="http://www.w3.org/2000/svg">
<g id="Exclamation Triangle">
<path id="Shape" fill-rule="evenodd" clip-rule="evenodd" d="M8.94499 0.608779C8.51838 -0.107003 7.48178 -0.106999 7.05518 0.608781L0.164596 12.1702C-0.272408 12.9034 0.255925 13.8333 1.1095 13.8333H14.8907C15.7443 13.8333 16.2726 12.9034 15.8356 12.1702L8.94499 0.608779ZM7.91418 1.12075C7.95296 1.05568 8.0472 1.05568 8.08598 1.12075L14.9766 12.6821C15.0163 12.7488 14.9683 12.8333 14.8907 12.8333H1.1095C1.0319 12.8333 0.983874 12.7488 1.0236 12.6821L7.91418 1.12075ZM7.28211 4.7852C7.26645 4.37786 7.59244 4.03909 8.00008 4.03909C8.40773 4.03909 8.73372 4.37786 8.71805 4.78521L8.55391 9.05283C8.54247 9.35042 8.29789 9.58577 8.00008 9.58577C7.70227 9.58577 7.4577 9.35042 7.44625 9.05283L7.28211 4.7852ZM8.79996 11.1744C8.79996 11.6162 8.44179 11.9744 7.99996 11.9744C7.55814 11.9744 7.19996 11.6162 7.19996 11.1744C7.19996 10.7326 7.55814 10.3744 7.99996 10.3744C8.44179 10.3744 8.79996 10.7326 8.79996 11.1744Z" fill="#E5484D"/>
</g>
</svg>
