<svg width="40" height="41" viewBox="0 0 40 41" fill="none" xmlns="http://www.w3.org/2000/svg">
<path d="M13.75 5.04688V7.54688M7.5 13.7969H5M35 13.7969H32.5M7.5 20.0469H5M35 20.0469H32.5M7.5 26.2969H5M35 26.2969H32.5M13.75 32.5469V35.0469M20 5.04688V7.54688M20 32.5469V35.0469M26.25 5.04688V7.54688M26.25 32.5469V35.0469M11.25 32.5469H28.75C29.7446 32.5469 30.6984 32.1518 31.4017 31.4485C32.1049 30.7453 32.5 29.7914 32.5 28.7969V11.2969C32.5 10.3023 32.1049 9.34849 31.4017 8.64522C30.6984 7.94196 29.7446 7.54688 28.75 7.54688H11.25C10.2554 7.54688 9.30161 7.94196 8.59835 8.64522C7.89509 9.34849 7.5 10.3023 7.5 11.2969V28.7969C7.5 29.7914 7.89509 30.7453 8.59835 31.4485C9.30161 32.1518 10.2554 32.5469 11.25 32.5469ZM12.5 12.5469H27.5V27.5469H12.5V12.5469Z" stroke="currentColor" stroke-width="1.5" stroke-linecap="round" stroke-linejoin="round"/>
</svg>
