<svg width="16" height="16" viewBox="0 0 16 16" fill="none" xmlns="http://www.w3.org/2000/svg">
<g id="buildings">
<path id="Vector" fill-rule="evenodd" clip-rule="evenodd" d="M0.799988 2.2C0.799988 2.04087 0.863202 1.88826 0.975724 1.77573C1.08825 1.66321 1.24086 1.6 1.39999 1.6H9.79999C9.95912 1.6 10.1117 1.66321 10.2243 1.77573C10.3368 1.88826 10.4 2.04087 10.4 2.2C10.4 2.35913 10.3368 2.51174 10.2243 2.62426C10.1117 2.73678 9.95912 2.8 9.79999 2.8H9.59999V13.8C9.59999 13.9591 9.53677 14.1117 9.42425 14.2243C9.31173 14.3368 9.15912 14.4 8.99999 14.4H7.79999C7.64086 14.4 7.48825 14.3368 7.37572 14.2243C7.2632 14.1117 7.19999 13.9591 7.19999 13.8V11.8C7.19999 11.6409 7.13677 11.4883 7.02425 11.3757C6.91173 11.2632 6.75912 11.2 6.59999 11.2H4.59999C4.44086 11.2 4.28825 11.2632 4.17572 11.3757C4.0632 11.4883 3.99999 11.6409 3.99999 11.8V13.8C3.99999 13.9591 3.93677 14.1117 3.82425 14.2243C3.71173 14.3368 3.55912 14.4 3.39999 14.4H1.39999C1.24086 14.4 1.08825 14.3368 0.975724 14.2243C0.863202 14.1117 0.799988 13.9591 0.799988 13.8C0.799988 13.6409 0.863202 13.4883 0.975724 13.3757C1.08825 13.2632 1.24086 13.2 1.39999 13.2H1.59999V2.8H1.39999C1.24086 2.8 1.08825 2.73678 0.975724 2.62426C0.863202 2.51174 0.799988 2.35913 0.799988 2.2ZM3.19999 4.4C3.19999 4.29391 3.24213 4.19217 3.31715 4.11716C3.39216 4.04214 3.4939 4 3.59999 4H4.39999C4.50607 4 4.60782 4.04214 4.68283 4.11716C4.75784 4.19217 4.79999 4.29391 4.79999 4.4V5.2C4.79999 5.30609 4.75784 5.40783 4.68283 5.48284C4.60782 5.55786 4.50607 5.6 4.39999 5.6H3.59999C3.4939 5.6 3.39216 5.55786 3.31715 5.48284C3.24213 5.40783 3.19999 5.30609 3.19999 5.2V4.4ZM3.59999 7.2C3.4939 7.2 3.39216 7.24214 3.31715 7.31716C3.24213 7.39217 3.19999 7.49391 3.19999 7.6V8.4C3.19999 8.50609 3.24213 8.60783 3.31715 8.68284C3.39216 8.75786 3.4939 8.8 3.59999 8.8H4.39999C4.50607 8.8 4.60782 8.75786 4.68283 8.68284C4.75784 8.60783 4.79999 8.50609 4.79999 8.4V7.6C4.79999 7.49391 4.75784 7.39217 4.68283 7.31716C4.60782 7.24214 4.50607 7.2 4.39999 7.2H3.59999ZM6.39999 4.4C6.39999 4.29391 6.44213 4.19217 6.51714 4.11716C6.59216 4.04214 6.6939 4 6.79999 4H7.59999C7.70607 4 7.80782 4.04214 7.88283 4.11716C7.95784 4.19217 7.99999 4.29391 7.99999 4.4V5.2C7.99999 5.30609 7.95784 5.40783 7.88283 5.48284C7.80782 5.55786 7.70607 5.6 7.59999 5.6H6.79999C6.6939 5.6 6.59216 5.55786 6.51714 5.48284C6.44213 5.40783 6.39999 5.30609 6.39999 5.2V4.4ZM6.79999 7.2C6.6939 7.2 6.59216 7.24214 6.51714 7.31716C6.44213 7.39217 6.39999 7.49391 6.39999 7.6V8.4C6.39999 8.50609 6.44213 8.60783 6.51714 8.68284C6.59216 8.75786 6.6939 8.8 6.79999 8.8H7.59999C7.70607 8.8 7.80782 8.75786 7.88283 8.68284C7.95784 8.60783 7.99999 8.50609 7.99999 8.4V7.6C7.99999 7.49391 7.95784 7.39217 7.88283 7.31716C7.80782 7.24214 7.70607 7.2 7.59999 7.2H6.79999ZM11.4 4.8C11.2409 4.8 11.0882 4.86321 10.9757 4.97573C10.8632 5.08826 10.8 5.24087 10.8 5.4V13.6C10.8 13.8122 10.8843 14.0157 11.0343 14.1657C11.1843 14.3157 11.3878 14.4 11.6 14.4H14.6C14.7591 14.4 14.9117 14.3368 15.0243 14.2243C15.1368 14.1117 15.2 13.9591 15.2 13.8C15.2 13.6409 15.1368 13.4883 15.0243 13.3757C14.9117 13.2632 14.7591 13.2 14.6 13.2H14.4V6H14.6C14.7591 6 14.9117 5.93678 15.0243 5.82426C15.1368 5.71174 15.2 5.55913 15.2 5.4C15.2 5.24087 15.1368 5.08826 15.0243 4.97573C14.9117 4.86321 14.7591 4.8 14.6 4.8H11.4ZM11.8 7.6C11.8 7.49391 11.8421 7.39217 11.9171 7.31716C11.9922 7.24214 12.0939 7.2 12.2 7.2H13C13.1061 7.2 13.2078 7.24214 13.2828 7.31716C13.3578 7.39217 13.4 7.49391 13.4 7.6V8.4C13.4 8.50609 13.3578 8.60783 13.2828 8.68284C13.2078 8.75786 13.1061 8.8 13 8.8H12.2C12.0939 8.8 11.9922 8.75786 11.9171 8.68284C11.8421 8.60783 11.8 8.50609 11.8 8.4V7.6ZM12.2 10.4C12.0939 10.4 11.9922 10.4421 11.9171 10.5172C11.8421 10.5922 11.8 10.6939 11.8 10.8V11.6C11.8 11.7061 11.8421 11.8078 11.9171 11.8828C11.9922 11.9579 12.0939 12 12.2 12H13C13.1061 12 13.2078 11.9579 13.2828 11.8828C13.3578 11.8078 13.4 11.7061 13.4 11.6V10.8C13.4 10.6939 13.3578 10.5922 13.2828 10.5172C13.2078 10.4421 13.1061 10.4 13 10.4H12.2Z" fill="currentColor"/>
</g>
</svg>
