<svg width="16" height="16" viewBox="0 0 16 16" fill="none" xmlns="http://www.w3.org/2000/svg">
<g id="credit-card">
<g id="Subtract">
<path d="M3 2.5C1.89543 2.5 1 3.39543 1 4.5V5H15V4.5C15 3.39543 14.1046 2.5 13 2.5H3Z" fill="#646464"/>
<path fill-rule="evenodd" clip-rule="evenodd" d="M15 6.5H1V11.5C1 12.6046 1.89543 13.5 3 13.5H13C14.1046 13.5 15 12.6046 15 11.5V6.5ZM3 9C3 8.72386 3.22386 8.5 3.5 8.5H7.5C7.77614 8.5 8 8.72386 8 9C8 9.27614 7.77614 9.5 7.5 9.5H3.5C3.22386 9.5 3 9.27614 3 9ZM3.5 10.5C3.22386 10.5 3 10.7239 3 11C3 11.2761 3.22386 11.5 3.5 11.5H5.5C5.77614 11.5 6 11.2761 6 11C6 10.7239 5.77614 10.5 5.5 10.5H3.5Z" fill="#646464"/>
</g>
</g>
</svg>
