<svg width="16" height="16" viewBox="0 0 16 16" fill="none" xmlns="http://www.w3.org/2000/svg">
<g id="Settings">
<path id="Subtract" fill-rule="evenodd" clip-rule="evenodd" d="M7.38526 1.5C6.77421 1.5 6.25273 1.94177 6.15227 2.5445L6.03316 3.25915C6.01973 3.33976 5.95694 3.4332 5.83541 3.49164C5.60603 3.60195 5.38645 3.7292 5.17826 3.87174C5.06727 3.94773 4.95506 3.95547 4.87846 3.92677L4.199 3.67222C3.62679 3.45785 2.98347 3.68859 2.67794 4.21777L2.06329 5.28239C1.75777 5.81157 1.8796 6.48408 2.35136 6.87244L2.91171 7.33374C2.97479 7.38567 3.0242 7.48655 3.01413 7.62048C3.00471 7.74584 2.99992 7.87241 2.99992 8C2.99992 8.12764 3.00471 8.25425 3.01414 8.37966C3.02421 8.5136 2.97481 8.61448 2.91172 8.66641L2.35136 9.12772C1.8796 9.51609 1.75777 10.1886 2.06329 10.7178L2.67794 11.7824C2.98347 12.3116 3.62679 12.5423 4.199 12.3279L4.87861 12.0733C4.95521 12.0446 5.06742 12.0524 5.17841 12.1284C5.38655 12.2709 5.60609 12.3981 5.83541 12.5084C5.95694 12.5668 6.01973 12.6602 6.03316 12.7408L6.15227 13.4555C6.25273 14.0582 6.77421 14.5 7.38526 14.5H8.61457C9.22562 14.5 9.74711 14.0582 9.84757 13.4555L9.96667 12.7408C9.98011 12.6602 10.0429 12.5668 10.1644 12.5084C10.3938 12.3981 10.6134 12.2708 10.8216 12.1283C10.9326 12.0523 11.0448 12.0445 11.1214 12.0732L11.8008 12.3278C12.373 12.5421 13.0164 12.3114 13.3219 11.7822L13.9365 10.7176C14.2421 10.1884 14.1202 9.51592 13.6485 9.12756L13.0881 8.66626C13.025 8.61433 12.9756 8.51345 12.9857 8.37952C12.9951 8.25416 12.9999 8.12759 12.9999 8C12.9999 7.87236 12.9951 7.74575 12.9857 7.62034C12.9756 7.4864 13.025 7.38552 13.0881 7.33359L13.6485 6.87228C14.1202 6.48391 14.2421 5.81141 13.9365 5.28223L13.3219 4.21761C13.0164 3.68843 12.373 3.45769 11.8008 3.67206L11.1212 3.92666C11.0446 3.95536 10.9324 3.94763 10.8214 3.87164C10.6133 3.72914 10.3938 3.60192 10.1644 3.49164C10.0429 3.4332 9.98011 3.33976 9.96667 3.25915L9.84757 2.5445C9.74711 1.94177 9.22562 1.5 8.61457 1.5H7.38526ZM8 10.5C9.38071 10.5 10.5 9.38071 10.5 8C10.5 6.61929 9.38071 5.5 8 5.5C6.61929 5.5 5.5 6.61929 5.5 8C5.5 9.38071 6.61929 10.5 8 10.5Z" fill="#646464"/>
</g>
</svg>
