<svg width="16" height="16" viewBox="0 0 16 16" fill="none" xmlns="http://www.w3.org/2000/svg">
<g id="users">
<path id="Vector" d="M5.6 6.4C6.23652 6.4 6.84697 6.14714 7.29706 5.69705C7.74715 5.24697 8 4.63652 8 4C8 3.36348 7.74715 2.75303 7.29706 2.30294C6.84697 1.85285 6.23652 1.6 5.6 1.6C4.96348 1.6 4.35303 1.85285 3.90295 2.30294C3.45286 2.75303 3.2 3.36348 3.2 4C3.2 4.63652 3.45286 5.24697 3.90295 5.69705C4.35303 6.14714 4.96348 6.4 5.6 6.4ZM11.6 7.2C12.1304 7.2 12.6391 6.98928 13.0142 6.61421C13.3893 6.23914 13.6 5.73043 13.6 5.2C13.6 4.66957 13.3893 4.16086 13.0142 3.78578C12.6391 3.41071 12.1304 3.2 11.6 3.2C11.0696 3.2 10.5609 3.41071 10.1858 3.78578C9.81072 4.16086 9.6 4.66957 9.6 5.2C9.6 5.73043 9.81072 6.23914 10.1858 6.61421C10.5609 6.98928 11.0696 7.2 11.6 7.2ZM1.292 13.1424C1.13515 13.0446 1.00917 12.9045 0.928616 12.7382C0.848065 12.5718 0.816233 12.3861 0.836803 12.2024C0.984287 11.0432 1.5494 9.97765 2.42625 9.2053C3.3031 8.43294 4.4315 8.00684 5.6 8.00684C6.7685 8.00684 7.8969 8.43294 8.77375 9.2053C9.6506 9.97765 10.2157 11.0432 10.3632 12.2024C10.4096 12.576 10.2256 12.9384 9.9072 13.1416C8.6218 13.9653 7.12669 14.4021 5.6 14.4C4.07313 14.4025 2.57772 13.966 1.292 13.1424ZM11.6 12.8H11.5152C11.5712 12.5624 11.5856 12.3112 11.5536 12.0536C11.4169 10.9538 10.977 9.91377 10.2832 9.0496C10.7297 8.87391 11.2068 8.7892 11.6865 8.80046C12.1662 8.81172 12.6388 8.91872 13.0765 9.11517C13.5143 9.31162 13.9084 9.59356 14.2357 9.94443C14.563 10.2953 14.8168 10.708 14.9824 11.1584C15.0333 11.3022 15.0323 11.4592 14.9797 11.6023C14.9272 11.7455 14.8262 11.8657 14.6944 11.9424C13.7606 12.5054 12.6904 12.802 11.6 12.8Z" fill="#646464"/>
</g>
</svg>
