<svg width="18" height="18" viewBox="0 0 18 18" fill="none" xmlns="http://www.w3.org/2000/svg">
<path fill-rule="evenodd" clip-rule="evenodd" d="M9.30515 2.01312C9.21931 1.94215 9.11142 1.90332 9.00005 1.90332C8.88867 1.90332 8.78078 1.94215 8.69495 2.01312C6.89721 3.50893 4.6608 4.37784 2.32475 4.48812C2.21949 4.49136 2.1187 4.53141 2.03993 4.6013C1.96116 4.67119 1.9094 4.76649 1.89365 4.87062C1.83115 5.34445 1.79988 5.82188 1.80005 6.29982C1.80005 10.9465 4.73405 14.9074 8.85065 16.4311C8.94708 16.4667 9.05302 16.4667 9.14945 16.4311C13.266 14.9074 16.2 10.9465 16.2 6.30072C16.2 5.81472 16.1685 5.33772 16.1064 4.86972C16.0907 4.76545 16.0388 4.67003 15.9598 4.60012C15.8809 4.53021 15.7799 4.49025 15.6744 4.48722C13.3387 4.37675 11.1026 3.50875 9.30515 2.01312Z" fill="#171717"/>
</svg>
