<svg width="16" height="16" viewBox="0 0 16 16" fill="none" xmlns="http://www.w3.org/2000/svg">
<path fill-rule="evenodd" clip-rule="evenodd" d="M3.1999 13.1996V2.79961H2.9999C2.84077 2.79961 2.68816 2.7364 2.57564 2.62387C2.46312 2.51135 2.3999 2.35874 2.3999 2.19961C2.3999 2.04048 2.46312 1.88787 2.57564 1.77535C2.68816 1.66282 2.84077 1.59961 2.9999 1.59961H12.9999C13.159 1.59961 13.3116 1.66282 13.4242 1.77535C13.5367 1.88787 13.5999 2.04048 13.5999 2.19961C13.5999 2.35874 13.5367 2.51135 13.4242 2.62387C13.3116 2.7364 13.159 2.79961 12.9999 2.79961H12.7999V13.1996H12.9999C13.159 13.1996 13.3116 13.2628 13.4242 13.3753C13.5367 13.4879 13.5999 13.6405 13.5999 13.7996C13.5999 13.9587 13.5367 14.1114 13.4242 14.2239C13.3116 14.3364 13.159 14.3996 12.9999 14.3996H10.1999C10.0408 14.3996 9.88816 14.3364 9.77564 14.2239C9.66312 14.1114 9.5999 13.9587 9.5999 13.7996V11.7996C9.5999 11.6405 9.53669 11.4879 9.42417 11.3753C9.31165 11.2628 9.15903 11.1996 8.9999 11.1996H6.9999C6.84077 11.1996 6.68816 11.2628 6.57564 11.3753C6.46312 11.4879 6.3999 11.6405 6.3999 11.7996V13.7996C6.3999 13.9587 6.33669 14.1114 6.22417 14.2239C6.11164 14.3364 5.95903 14.3996 5.7999 14.3996H2.9999C2.84077 14.3996 2.68816 14.3364 2.57564 14.2239C2.46312 14.1114 2.3999 13.9587 2.3999 13.7996C2.3999 13.6405 2.46312 13.4879 2.57564 13.3753C2.68816 13.2628 2.84077 13.1996 2.9999 13.1996H3.1999ZM5.5999 4.39961C5.5999 4.29352 5.64205 4.19178 5.71706 4.11677C5.79207 4.04175 5.89382 3.99961 5.9999 3.99961H6.7999C6.90599 3.99961 7.00773 4.04175 7.08275 4.11677C7.15776 4.19178 7.1999 4.29352 7.1999 4.39961V5.19961C7.1999 5.3057 7.15776 5.40744 7.08275 5.48245C7.00773 5.55747 6.90599 5.59961 6.7999 5.59961H5.9999C5.89382 5.59961 5.79207 5.55747 5.71706 5.48245C5.64205 5.40744 5.5999 5.3057 5.5999 5.19961V4.39961ZM5.9999 7.19961C5.89382 7.19961 5.79207 7.24175 5.71706 7.31677C5.64205 7.39178 5.5999 7.49352 5.5999 7.59961V8.39961C5.5999 8.5057 5.64205 8.60744 5.71706 8.68245C5.79207 8.75747 5.89382 8.79961 5.9999 8.79961H6.7999C6.90599 8.79961 7.00773 8.75747 7.08275 8.68245C7.15776 8.60744 7.1999 8.5057 7.1999 8.39961V7.59961C7.1999 7.49352 7.15776 7.39178 7.08275 7.31677C7.00773 7.24175 6.90599 7.19961 6.7999 7.19961H5.9999ZM8.7999 4.39961C8.7999 4.29352 8.84205 4.19178 8.91706 4.11677C8.99207 4.04175 9.09382 3.99961 9.1999 3.99961H9.9999C10.106 3.99961 10.2077 4.04175 10.2827 4.11677C10.3578 4.19178 10.3999 4.29352 10.3999 4.39961V5.19961C10.3999 5.3057 10.3578 5.40744 10.2827 5.48245C10.2077 5.55747 10.106 5.59961 9.9999 5.59961H9.1999C9.09382 5.59961 8.99207 5.55747 8.91706 5.48245C8.84205 5.40744 8.7999 5.3057 8.7999 5.19961V4.39961ZM9.1999 7.19961C9.09382 7.19961 8.99207 7.24175 8.91706 7.31677C8.84205 7.39178 8.7999 7.49352 8.7999 7.59961V8.39961C8.7999 8.5057 8.84205 8.60744 8.91706 8.68245C8.99207 8.75747 9.09382 8.79961 9.1999 8.79961H9.9999C10.106 8.79961 10.2077 8.75747 10.2827 8.68245C10.3578 8.60744 10.3999 8.5057 10.3999 8.39961V7.59961C10.3999 7.49352 10.3578 7.39178 10.2827 7.31677C10.2077 7.24175 10.106 7.19961 9.9999 7.19961H9.1999Z" fill="#171717"/>
</svg>
